<svg width="512" height="512" viewBox="0 0 512 512" fill="none" xmlns="http://www.w3.org/2000/svg" role="img" aria-label="Exercise demo placeholder">
  <rect width="512" height="512" rx="96" fill="#F6E4CC"/>
  <circle cx="256" cy="236" r="126" stroke="#13434F" stroke-width="16" stroke-linecap="round" stroke-dasharray="230 44"/>
  <path d="M170 302H342" stroke="#13434F" stroke-width="14" stroke-linecap="round"/>
  <path d="M188 332H324" stroke="#13434F" stroke-width="14" stroke-linecap="round"/>
  <circle cx="256" cy="176" r="33" stroke="#13434F" stroke-width="16"/>
  <path d="M218 220C226 246 236 260 256 260C276 260 286 246 294 220" stroke="#13434F" stroke-width="16" stroke-linecap="round" stroke-linejoin="round"/>
  <path d="M214 234L180 212M298 234L332 212" stroke="#13434F" stroke-width="16" stroke-linecap="round"/>
  <path d="M148 199H194M318 199H364" stroke="#13434F" stroke-width="16" stroke-linecap="round"/>
  <path d="M136 184V214M376 184V214" stroke="#13434F" stroke-width="16" stroke-linecap="round"/>
  <path d="M224 260L204 334M288 260L308 334" stroke="#13434F" stroke-width="16" stroke-linecap="round"/>
  <path d="M210 334H178M302 334H334" stroke="#13434F" stroke-width="16" stroke-linecap="round"/>
  <path d="M216 100C240 90 272 90 296 100" stroke="#A7FF00" stroke-width="18" stroke-linecap="round"/>
  <circle cx="146" cy="256" r="8" fill="#A7FF00"/>
  <circle cx="366" cy="256" r="8" fill="#A7FF00"/>
</svg>
